HIERARCHY
ROOT SimulationBone
{
	OFFSET 0.000000 0.000000 0.000000
	CHANNELS 6 Xposition Yposition Zposition Zrotation Yrotation Xrotation 
	JOINT Hips
	{
		OFFSET 0.000000 0.000000 0.000000
		CHANNELS 6 Xposition Yposition Zposition Zrotation Yrotation Xrotation 
		JOINT LeftUpLeg
		{
			OFFSET 0.103456 1.857840 10.548509
			CHANNELS 3 Zrotation Yrotation Xrotation
			JOINT LeftLeg
			{
				OFFSET 43.500000 -0.000042 0.000010
				CHANNELS 3 Zrotation Yrotation Xrotation
				JOINT LeftFoot
				{
					OFFSET 42.372192 0.000019 0.000000
					CHANNELS 3 Zrotation Yrotation Xrotation
					JOINT LeftToe
					{
						OFFSET 17.299999 -0.000000 0.000003
						CHANNELS 3 Zrotation Yrotation Xrotation
						End Site
						{
							OFFSET 0.000000 0.000000 0.000000
						}
					}
				}
			}
		}
		JOINT RightUpLeg
		{
			OFFSET 0.103456 1.857823 -10.548508
			CHANNELS 3 Zrotation Yrotation Xrotation
			JOINT RightLeg
			{
				OFFSET 43.500042 -0.000027 0.000004
				CHANNELS 3 Zrotation Yrotation Xrotation
				JOINT RightFoot
				{
					OFFSET 42.372261 0.000000 0.000010
					CHANNELS 3 Zrotation Yrotation Xrotation
					JOINT RightToe
					{
						OFFSET 17.299994 -0.000006 0.000017
						CHANNELS 3 Zrotation Yrotation Xrotation
						End Site
						{
							OFFSET 0.000000 0.000000 0.000000
						}
					}
				}
			}
		}
		JOINT Spine
		{
			OFFSET 6.901967 -2.603732 -0.000003
			CHANNELS 3 Zrotation Yrotation Xrotation
			JOINT Spine1
			{
				OFFSET 12.588099 0.000010 0.000008
				CHANNELS 3 Zrotation Yrotation Xrotation
				JOINT Spine2
				{
					OFFSET 12.343201 -0.000018 -0.000005
					CHANNELS 3 Zrotation Yrotation Xrotation
					JOINT Neck
					{
						OFFSET 25.832890 0.000023 0.000007
						CHANNELS 3 Zrotation Yrotation Xrotation
						JOINT Head
						{
							OFFSET 11.766609 -0.000008 -0.000006
							CHANNELS 3 Zrotation Yrotation Xrotation
							End Site
							{
								OFFSET 0.000000 0.000000 0.000000
							}
						}
					}
					JOINT LeftShoulder
					{
						OFFSET 19.745909 -1.480347 6.000101
						CHANNELS 3 Zrotation Yrotation Xrotation
						JOINT LeftArm
						{
							OFFSET 11.284133 0.000018 -0.000020
							CHANNELS 3 Zrotation Yrotation Xrotation
							JOINT LeftForeArm
							{
								OFFSET 33.000050 -0.000013 0.000019
								CHANNELS 3 Zrotation Yrotation Xrotation
								JOINT LeftHand
								{
									OFFSET 25.200005 0.000032 0.000011
									CHANNELS 3 Zrotation Yrotation Xrotation
									End Site
									{
										OFFSET 0.000000 0.000000 0.000000
									}
								}
							}
						}
					}
					JOINT RightShoulder
					{
						OFFSET 19.746101 -1.480358 -6.000078
						CHANNELS 3 Zrotation Yrotation Xrotation
						JOINT RightArm
						{
							OFFSET 11.284140 -0.000000 -0.000001
							CHANNELS 3 Zrotation Yrotation Xrotation
							JOINT RightForeArm
							{
								OFFSET 33.000103 0.000016 -0.000001
								CHANNELS 3 Zrotation Yrotation Xrotation
								JOINT RightHand
								{
									OFFSET 25.199762 0.000123 0.000432
									CHANNELS 3 Zrotation Yrotation Xrotation
									End Site
									{
										OFFSET 0.000000 0.000000 0.000000
									}
								}
							}
						}
					}
				}
			}
		}
	}
}
MOTION
Frames: 11
Frame Time: 0.016667
-214.462305 0.000000 -431.162352 0.000000 259.600598 0.000000 -0.439724 90.222511 1.252233 94.484341 -1.764354 179.898339 -179.115086 3.206601 171.187299 -17.716271 -2.798934 -10.372053 79.904552 7.133730 -0.471145 21.454551 0.003094 0.000001 157.862201 5.890304 -173.085832 -38.937207 0.280000 8.663762 71.074128 -4.644077 5.134026 21.454557 -0.003108 -0.000018 8.963826 -2.589406 0.113567 7.921741 -5.180503 0.049721 7.602238 -5.179972 0.081106 4.505463 -1.057599 1.190963 -20.279573 11.469633 -3.471307 -169.462825 -76.144078 -12.261024 -31.565015 54.463141 8.531075 -39.815648 -15.983326 1.517094 8.828914 -4.713290 18.386306 -157.414712 74.438949 24.560766 2.842231 -62.046960 -40.868257 -55.948332 15.989206 -2.049587 4.487036 0.161877 -8.603732 
-214.395603 0.000000 -430.897649 0.000000 259.380357 0.000000 -0.513384 90.249861 1.310370 94.317999 -1.655163 179.860142 -179.049559 3.185259 171.155645 -17.484894 -2.760162 -10.522946 79.909471 7.226065 -0.520015 21.454549 0.003090 -0.000001 157.838464 5.367160 -173.132374 -36.878362 0.589466 8.453610 70.810738 -4.510384 5.082198 21.454557 -0.003107 -0.000018 8.938225 -2.592345 0.087705 7.871681 -5.184622 -0.001050 7.552153 -5.184405 0.030355 4.436488 -1.037642 1.215951 -20.359531 11.541296 -3.481239 -169.465442 -76.086411 -12.258365 -31.931048 54.601221 8.164787 -39.979556 -16.019318 1.523756 8.867376 -4.582827 17.952441 -157.444326 74.374728 24.531594 2.752744 -62.230008 -40.820015 -55.932533 16.057244 -2.053585 4.454687 0.093988 -9.476690 
-214.343069 0.000000 -430.617942 0.000000 259.167617 0.000000 -0.594073 90.277679 1.364595 94.150399 -1.554323 179.845308 -178.966174 3.175713 171.147356 -17.245111 -2.716643 -10.658941 79.938955 7.299118 -0.606055 21.454550 0.003089 -0.000002 157.812709 4.856405 -173.216493 -34.828933 0.874067 8.277143 70.512680 -4.392123 5.050310 21.454558 -0.003107 -0.000017 8.917866 -2.591735 0.057454 7.832283 -5.181364 -0.060591 7.512742 -5.181511 -0.029210 4.358878 -1.024792 1.230163 -20.449301 11.599147 -3.499201 -169.574007 -76.047451 -12.147446 -32.275556 54.725888 7.873285 -40.062235 -16.052043 1.528045 8.889286 -4.451711 17.696633 -157.492576 74.314674 24.483272 2.554971 -62.442025 -40.678221 -55.752627 16.159963 -2.054127 4.439132 0.064093 -10.096851 
-214.306169 0.000000 -430.323287 0.000000 258.962713 0.000000 -0.683672 90.299763 1.408751 93.979073 -1.475958 179.849428 -178.857747 3.194960 171.131571 -17.008012 -2.671699 -10.745390 80.027676 7.328033 -0.732982 21.454552 0.003095 -0.000002 157.764002 4.381733 -173.248422 -32.843314 1.105624 8.095717 70.235911 -4.272419 5.010422 21.454558 -0.003114 -0.000017 8.902440 -2.589475 0.023768 7.802874 -5.174623 -0.127132 7.483356 -5.175166 -0.095782 4.280801 -1.024744 1.244518 -20.559102 11.646219 -3.516927 -169.849594 -76.021511 -11.865778 -32.580036 54.828788 7.680880 -40.067050 -16.089866 1.530572 8.943505 -4.328234 17.650088 -157.570285 74.275489 24.404475 2.283507 -62.679842 -40.445596 -55.436743 16.268896 -2.050284 4.435521 0.080498 -10.435779 
-214.286199 0.000000 -430.013462 0.000000 258.764920 0.000000 -0.777074 90.315262 1.442545 93.810680 -1.415345 179.861580 -178.741365 3.221694 171.055886 -16.779422 -2.620838 -10.784525 80.128111 7.327209 -0.847421 21.454555 0.003101 -0.000000 157.681884 3.935098 -173.270233 -30.961807 1.301701 7.956526 69.993196 -4.193620 4.941241 21.454560 -0.003121 -0.000018 8.891841 -2.585587 -0.012195 7.783202 -5.164491 -0.198354 7.463713 -5.165458 -0.167057 4.204999 -1.018392 1.260055 -20.675304 11.650243 -3.515953 -170.151609 -75.999851 -11.557051 -32.867846 54.915224 7.621795 -39.958764 -16.158462 1.532263 8.991163 -4.178908 17.734492 -157.685515 74.253448 24.286906 1.977946 -62.918212 -40.153741 -55.038374 16.369824 -2.042932 4.468172 0.109744 -10.480883 
-214.282874 0.000000 -429.687554 0.000000 258.573327 0.000000 -0.868863 90.324266 1.467819 93.652189 -1.364638 179.872112 -178.632653 3.234461 170.887439 -16.564683 -2.560384 -10.789729 80.195364 7.316703 -0.903346 21.454554 0.003099 0.000002 157.561350 3.505164 -173.326129 -29.220625 1.480562 7.911896 69.780364 -4.196300 4.834039 21.454560 -0.003121 -0.000018 8.885920 -2.579514 -0.048538 7.772899 -5.149946 -0.270409 7.453414 -5.151351 -0.239205 4.131019 -0.984105 1.275581 -20.782321 11.583475 -3.481205 -170.363558 -75.980530 -11.340363 -33.161262 54.997178 7.709963 -39.710929 -16.274001 1.533399 8.994216 -3.979200 17.874339 -157.827975 74.238463 24.141196 1.676038 -63.127372 -39.843023 -54.616382 16.454922 -2.033772 4.556432 0.118375 -10.255344 
-214.295366 0.000000 -429.344174 0.000000 258.386901 0.000000 -0.958611 90.325279 1.483467 93.502530 -1.321981 179.883565 -178.517062 3.248893 170.693531 -16.372397 -2.498110 -10.782296 80.277500 7.301484 -0.941233 21.454553 0.003093 0.000002 157.404127 3.099791 -173.337579 -27.654306 1.632493 7.942513 69.568420 -4.254401 4.722399 21.454560 -0.003115 -0.000018 8.884174 -2.570270 -0.080604 7.770741 -5.129332 -0.333869 7.451253 -5.131125 -0.302798 4.051032 -0.914922 1.291046 -20.880691 11.471325 -3.421948 -170.665485 -75.988903 -11.031771 -33.435383 55.099383 7.869386 -39.371156 -16.397341 1.532482 9.006626 -3.782807 18.115694 -157.916799 74.215595 24.050556 1.396835 -63.280751 -39.553634 -54.225441 16.527656 -2.024971 4.669307 0.115668 -9.909611 
-214.323019 0.000000 -428.982187 0.000000 258.204176 0.000000 -1.046373 90.317150 1.487675 93.359601 -1.288757 179.900656 -178.376204 3.287040 170.547955 -16.204273 -2.439432 -10.784219 80.421786 7.285357 -1.009202 21.454554 0.003090 0.000000 157.213877 2.730640 -173.215104 -26.290463 1.747654 8.021821 69.331234 -4.334426 4.647913 21.454558 -0.003108 -0.000017 8.885923 -2.557434 -0.105017 7.775208 -5.102039 -0.381907 7.455734 -5.104122 -0.351001 3.960862 -0.809740 1.308729 -20.979439 11.348233 -3.350549 -171.226519 -76.042148 -10.458528 -33.659465 55.237016 8.026732 -38.994627 -16.486461 1.528517 9.088574 -3.632105 18.509423 -157.881517 74.175223 24.087468 1.152032 -63.359553 -39.318385 -53.907064 16.590585 -2.018117 4.767305 0.119123 -9.604174 
-214.364906 0.000000 -428.600696 0.000000 258.023576 0.000000 -1.130029 90.301682 1.480313 93.225169 -1.273422 179.923160 -178.206206 3.360194 170.450021 -16.031094 -2.369316 -10.812047 80.579245 7.281608 -1.099309 21.454555 0.003092 -0.000001 156.999985 2.403697 -172.947534 -25.129082 1.834489 8.168875 69.079426 -4.440179 4.642792 21.454558 -0.003104 -0.000017 8.890141 -2.543261 -0.126284 7.784455 -5.072273 -0.423666 7.465001 -5.074607 -0.392938 3.878356 -0.676240 1.339210 -21.105493 11.231825 -3.266994 -171.863787 -76.101853 -9.807513 -33.825367 55.376204 8.210512 -38.592122 -16.543217 1.521964 9.233469 -3.444188 19.002647 -157.763093 74.133353 24.209612 0.938856 -63.372385 -39.137078 -53.654311 16.631243 -2.012066 4.826988 0.133866 -9.412597 
-214.420757 0.000000 -428.198389 0.000000 257.844342 0.000000 -1.207031 90.280893 1.461458 93.102945 -1.282539 179.949641 -178.002644 3.472461 170.378424 -15.823649 -2.273045 -10.870169 80.697632 7.296663 -1.197006 21.454552 0.003098 -0.000000 156.777288 2.121846 -172.528059 -24.163500 1.900682 8.403276 68.837550 -4.581844 4.720120 21.454558 -0.003106 -0.000018 8.895770 -2.529834 -0.149663 7.796601 -5.043843 -0.469776 7.477163 -5.046454 -0.439224 3.823281 -0.521188 1.393111 -21.277016 11.130516 -3.166371 -172.349118 -76.131287 -9.311716 -33.934292 55.484880 8.460673 -38.164416 -16.575813 1.513244 9.428758 -3.138178 19.516501 -157.622719 74.107300 24.353895 0.755345 -63.333470 -39.004478 -53.449465 16.640300 -2.005565 4.837215 0.156351 -9.360841 
-214.491111 0.000000 -427.773697 0.000000 257.667272 0.000000 -1.273204 90.254692 1.432073 93.000722 -1.308094 179.980462 -177.744472 3.609893 170.303650 -15.583447 -2.157994 -10.920418 80.808076 7.301023 -1.317740 21.454550 0.003102 0.000001 156.574915 1.881393 -171.888650 -23.388195 1.936010 8.698518 68.649643 -4.758914 4.825442 21.454558 -0.003108 -0.000018 8.901972 -2.515857 -0.175523 7.809977 -5.014144 -0.520836 7.490556 -5.017064 -0.490469 3.800915 -0.338969 1.472563 -21.459360 11.032368 -3.036845 -172.663466 -76.147882 -8.990623 -34.003621 55.586567 8.759402 -37.716853 -16.573951 1.501944 9.699940 -2.767819 19.971190 -157.494202 74.094045 24.485767 0.620570 -63.252467 -38.931427 -53.280099 16.636102 -1.999454 4.820245 0.160805 -9.371285 
